<svg id="visual" viewBox="0 0 900 450" width="900" height="450" xmlns="http://www.w3.org/2000/svg" xmlns:xlink="http://www.w3.org/1999/xlink" version="1.1"><rect x="0" y="0" width="900" height="450" fill="#58a44c"></rect><path d="M0 83L11.5 88C23 93 46 103 69 116C92 129 115 145 138.2 140.7C161.3 136.3 184.7 111.7 207.8 99.5C231 87.3 254 87.7 277 102.2C300 116.7 323 145.3 346 144.5C369 143.7 392 113.3 415.2 105.3C438.3 97.3 461.7 111.7 484.8 111.7C508 111.7 531 97.3 554 101C577 104.7 600 126.3 623 128.2C646 130 669 112 692.2 106.2C715.3 100.3 738.7 106.7 761.8 109.8C785 113 808 113 831 114.5C854 116 877 119 888.5 120.5L900 122L900 0L888.5 0C877 0 854 0 831 0C808 0 785 0 761.8 0C738.7 0 715.3 0 692.2 0C669 0 646 0 623 0C600 0 577 0 554 0C531 0 508 0 484.8 0C461.7 0 438.3 0 415.2 0C392 0 369 0 346 0C323 0 300 0 277 0C254 0 231 0 207.8 0C184.7 0 161.3 0 138.2 0C115 0 92 0 69 0C46 0 23 0 11.5 0L0 0Z" fill="#FFFFFF" stroke-linecap="round" stroke-linejoin="miter"></path></svg>