<svg id="visual" viewBox="0 0 900 600" width="900" height="600" xmlns="http://www.w3.org/2000/svg" xmlns:xlink="http://www.w3.org/1999/xlink" version="1.1"><rect x="0" y="0" width="900" height="600" fill="#58a44c"></rect><path d="M0 84L21.5 96.5C43 109 86 134 128.8 151.3C171.7 168.7 214.3 178.3 257.2 182.3C300 186.3 343 184.7 385.8 168C428.7 151.3 471.3 119.7 514.2 110.3C557 101 600 114 642.8 131.5C685.7 149 728.3 171 771.2 180.2C814 189.3 857 185.7 878.5 183.8L900 182L900 0L878.5 0C857 0 814 0 771.2 0C728.3 0 685.7 0 642.8 0C600 0 557 0 514.2 0C471.3 0 428.7 0 385.8 0C343 0 300 0 257.2 0C214.3 0 171.7 0 128.8 0C86 0 43 0 21.5 0L0 0Z" fill="#FFFFFF" stroke-linecap="round" stroke-linejoin="miter"></path></svg>